<svg id="ffb37006-6823-47d5-b4b5-21f07e9e71a0" xmlns="http://www.w3.org/2000/svg" viewBox="0 0 1038.48 784.41"><title>homeSvg</title><path d="M267.48,692s5-21,40-14,40,14,40,14Z" transform="translate(0)" fill="#3f3d56"/><path d="M95,664.48s5-21,40-14,40,14,40,14Z" transform="translate(0)" fill="#3f3d56"/><path d="M387.48,692s-28-17-40,0Z" transform="translate(0)" fill="#3f3d56"/><path d="M257,644s-28-17-40,0Z" transform="translate(0)" fill="#3f3d56"/><path d="M99.91,628.36c8.33,15.46,26,22.1,26,22.1s4.17-18.43-4.16-33.89-26-22.1-26-22.1S91.57,612.9,99.91,628.36Z" transform="translate(0)" fill="#3f3d56"/><path d="M105.64,623.27c15,9.06,20.84,27,20.84,27s-18.6,3.31-33.65-5.75-20.85-27-20.85-27S90.59,614.22,105.64,623.27Z" transform="translate(0)" fill="#2c9ca2"/><path d="M932,679.48s5-21,40-14,40,14,40,14Z" transform="translate(0)" fill="#3f3d56"/><path d="M852,692q-36.47-5.72-70.14-9.72L790.48,665c-3-1-16,9-16,9l11-50c-15,2-22,53-22,53l-17-17,8.37,19.25c-68.68-7.22-127.94-9.47-177.76-9l7.39-14.79c-3-1-16,9-16,9l11-50c-15,2-22,53-22,53l-17-17,8.87,20.38a1001,1001,0,0,0-102,8.22c7.39-23,33.16-45.1,33.16-45.1-19.82,6.17-30.13,16.21-35.47,25.52a401.57,401.57,0,0,1,21.47-139s-40,90-34,150l.76,10.66C398.45,686.57,381,692,381,692Z" transform="translate(0)" fill="#3f3d56"/><path d="M591,737.48s184-27,298,0" transform="translate(0)" fill="#3f3d56"/><path d="M320,774.48s184-27,298,0" transform="translate(0)" fill="#3f3d56"/><path d="M661,784.41s109-27.64,176.5,0" transform="translate(0)" fill="#3f3d56"/><path d="M965.37,673.44l-1.78-.92c23.09-44.62,10.74-102.58-3.67-143.33a439.31,439.31,0,0,0-37.28-78.68l1.69-1.07a441.72,441.72,0,0,1,37.47,79.08C976.35,569.65,988.78,628.18,965.37,673.44Z" transform="translate(0)" fill="#3f3d56"/><rect x="940.9" y="484.49" width="72.18" height="2" transform="translate(323.8 1359.29) rotate(-79.64)" fill="#3f3d56"/><rect x="927.98" y="497.8" width="2" height="98.35" transform="translate(-123.72 779.4) rotate(-42.94)" fill="#3f3d56"/><rect x="971.48" y="612.48" width="58.01" height="2" transform="translate(-82.82 1064.89) rotate(-54.14)" fill="#3f3d56"/><circle cx="988.48" cy="420.98" r="10" fill="#2c9ca2"/><circle cx="879.48" cy="497.98" r="10" fill="#3f3d56"/><circle cx="923.48" cy="507.98" r="10" fill="#3f3d56"/><circle cx="903.48" cy="546.98" r="10" fill="#2c9ca2"/><circle cx="1028.48" cy="571.98" r="10" fill="#2c9ca2"/><circle cx="995.48" cy="582.98" r="10" fill="#3f3d56"/><circle cx="1018.48" cy="614.98" r="10" fill="#3f3d56"/><circle cx="913.48" cy="432.98" r="10" fill="#3f3d56"/><path d="M328.26,380c0,123.61-73.48,166.77-164.13,166.77S0,503.58,0,380,164.13,99.11,164.13,99.11,328.26,256.36,328.26,380Z" transform="translate(0)" fill="#2c9ba2"/><polygon points="158.15 527.83 159.83 424.38 229.79 296.4 160.1 408.15 160.85 361.64 209.07 269.04 161.05 349.33 161.05 349.33 162.41 265.67 214.04 191.95 162.63 252.51 163.47 99.11 158.14 302.19 158.58 293.81 106.08 213.46 157.74 309.89 152.84 403.33 152.7 400.85 92.19 316.29 152.51 409.61 151.9 421.29 151.79 421.47 151.84 422.43 139.44 659.48 156.01 659.48 158 537.04 218.19 443.95 158.15 527.83" fill="#3f3d56"/><path d="M869.65,343.12c0,151-89.78,203.74-200.52,203.74S468.62,494.13,468.62,343.12,669.13,0,669.13,0,869.65,192.11,869.65,343.12Z" transform="translate(0)" fill="#2c9ba2"/><polygon points="661.83 523.76 663.88 397.38 749.35 241.02 664.2 377.55 665.13 320.73 724.03 207.6 665.37 305.69 665.37 305.69 667.03 203.48 730.1 113.42 667.29 187.41 668.33 0 661.81 248.1 662.35 237.86 598.22 139.7 661.32 257.51 655.34 371.65 655.16 368.63 581.24 265.33 654.94 379.33 654.19 393.6 654.06 393.82 654.12 394.99 638.96 684.59 659.21 684.59 661.64 535 735.17 421.29 661.83 523.76" fill="#3f3d56"/><path d="M507.17,560.62l9.13,28.28S508,615.44,512,645s1.74,30.45,1.74,30.45-39.12-2.25-35.21,9.5,42.18,4.86,42.18,4.86,7.34-2,10.82-22.86,12.24-61.11,12.24-61.11l-8.23-38Z" transform="translate(0)" fill="#ffb8b8"/><path d="M510.21,502.75s-16.53,6.09-16.53,22.62,6.09,39.16,10,40.47,30,19.14,34.8,6.52S510.21,502.75,510.21,502.75Z" transform="translate(0)" fill="#6c63ff"/><polygon points="648.58 698.54 683.38 697.24 709.92 693.32 702.09 719.43 637.7 721.17 648.58 698.54" fill="#ffb8b8"/><path d="M698.61,702s-.43-9.57-4.35-9.13-1.3-3.48,2.18-4.35,13.48-5.22,13.48-5.22l39.6,2.61s25.67,22.62,15.23,34.8S727.33,722,727.33,722l-29.15.43S688.6,706.81,698.61,702Z" transform="translate(0)" fill="#2f2e41"/><polygon points="714.28 668.52 726.89 727.7 753 722.48 738.21 648.51 722.54 640.24 714.28 668.52" fill="#ffb8b8"/><path d="M564.17,661.13S491.07,694.19,522,727.7c0,0,0,15.66,32.63,12.61s95.73-8.7,98.77-7S666,699,657.71,697.24s-18.27-3.92-18.27-3.92,8.7-1.3,8.7-8.7c0,0,24.8-1.74,32.2-17.4s14.36-27.41,14.36-27.41l17,43.51s19.58-36.12,34.38-20c0,0-16.54-104-29.15-113.56s-21.32-12.62-33.07-3.92-22.63,30.9-22.63,30.9Z" transform="translate(0)" fill="#2f2e41"/><path d="M738.64,709.86a97.28,97.28,0,0,0-8.7,7.39c-3.48,3.48-8.27,1.74-8.7,0s-8.27,1.31-9.14,13.93S706,755.11,719.93,759s13.49,15.23,13.49,15.23a46.91,46.91,0,0,0,35.24,2.18c19.58-6.53,12.62-13.49,12.62-13.49l-26.1-43.08S748.21,706.81,738.64,709.86Z" transform="translate(0)" fill="#2f2e41"/><path d="M666.41,494.05s41.77,14.35,46.13,17.4,23.93,17.4,14.35,24.8-17.4,12.18-36.11,6.53-39.59-23.06-39.59-23.06Z" transform="translate(0)" fill="#ffb8b8"/><path d="M624.64,474.9s16.54-3,28.29,3.48S674.68,498,674.68,498,663.8,521,656,524.5s-22.19-13.92-22.19-13.92Z" transform="translate(0)" fill="#6c63ff"/><path d="M548.5,462.28s.44,17-1.3,18.71,20.88,53.09,45.68,30.46,5.66-31.76,5.66-31.76-9.14-17-8.7-18.71-40.47,0-40.47,0Z" transform="translate(0)" fill="#ffb8b8"/><path d="M548.5,462.28s.44,17-1.3,18.71,20.88,53.09,45.68,30.46,5.66-31.76,5.66-31.76-9.14-17-8.7-18.71-40.47,0-40.47,0Z" transform="translate(0)" opacity="0.1" style="isolation:isolate"/><path d="M555.46,494.92s16.54,11.31,23.5,8.7,15.66-13.92,16.53-14.79,45.25,88.32,45.25,88.32-6.52,32.63-23.93,42.21-17.18,17.18-19.36,23.71-30.24-20.67-30.24-20.67l-17.84-75.71V500.57Z" transform="translate(0)" fill="#6c63ff"/><path d="M548.28,474.68s-5.43-1.08-11.09,3.7S505,501,506.3,502.75,519.35,529.29,522,539.3s6.53,11.31,6.53,11.31,9.13,6.53,7.83,11.31-7,70.05.87,84.41,6.53,27,4.35,30.46,20.89-10,20.89-10,34.37-27.84,37-36.11a97.26,97.26,0,0,0,3.48-17.41s-22.19-87.89-29.15-92.67S548.28,474.68,548.28,474.68Z" transform="translate(0)" fill="#575a89"/><path d="M596.08,475s10.73-6.65,12.9-4.91,22.63,1.74,23.06,3.48,1.31,43.51,16.1,54.38,5.22,32.64,5.22,32.64L664.24,578S605.07,635,609,615.44c.22-1.09,0-1.31,0-1.31s-23.06-98.76-20-104S597.55,481.25,596.08,475Z" transform="translate(0)" fill="#575a89"/><path d="M687.3,514.93l-59.17,20.45s-58.74,13.92-49.61,30,47.87-11.31,47.87-11.31l78.79-8.83S736.47,518.85,687.3,514.93Z" transform="translate(0)" fill="#ffb8b8"/><circle cx="572" cy="446.19" r="32.2" fill="#ffb8b8"/><path d="M546.36,414.19l-6-2.17s12.45-12.45,29.78-11.37l-4.87-4.87s11.91-4.33,22.74,7c5.69,6,12.28,13,16.38,20.91h6.38l-2.66,5.33,9.32,5.32-9.57-.95a26.77,26.77,0,0,1-.9,13.78l-2.17,6s-8.66-17.33-8.66-19.49v5.41s-6-4.87-6-8.12L587,434.76l-1.62-5.95-20,5.95,3.25-4.87-12.46,1.62,4.88-5.95s-14.08,7-14.62,13-7.58,13.54-7.58,13.54l-3.25-5.42S530.65,422.31,546.36,414.19Z" transform="translate(0)" fill="#2f2e41"/></svg>