<svg id="b90746aa-ab89-4048-b48f-88833dcede4a" xmlns="http://www.w3.org/2000/svg" viewBox="0 0 888.2 478"><title>loginSvg</title><path d="M192,477h-2A94,94,0,0,0,2,477H0a96,96,0,0,1,192,0Z" fill="#3f3d56"/><path d="M888,477h-2a94,94,0,0,0-188,0h-2a96,96,0,0,1,192,0Z" fill="#3f3d56"/><path d="M653,248h-2c0-94.8-77.2-172-172-172S307,153.2,307,248h-2c0-95.9,78.1-174,174-174S653,152.1,653,248Z" fill="#3f3d56"/><circle cx="145.5" cy="39.5" r="39.5" fill="#ff6584"/><polygon points="153.9 311.4 221.8 230.6 355.2 230.6 436.7 310 435.1 311 435.6 311 435.6 476.2 154 476.2 154 311 153.9 311.4" fill="#3f3d56"/><rect x="194.7" y="223" width="15.4" height="53.2" fill="#3f3d56"/><polygon points="220.7 229.5 304.3 327.6 304.3 476.2 154 476.2 154 308.9 220.7 229.5" fill="#2c9ca2"/><rect x="254.3" y="347" width="30.7" height="31.4" fill="#3f3d56"/><rect x="254.3" y="389.8" width="30.7" height="31.4" fill="#3f3d56"/><rect x="254.3" y="347" width="30.7" height="31.4" fill="#fff"/><rect x="254.3" y="389.8" width="30.7" height="31.4" fill="#fff"/><rect x="211.8" y="347" width="30.7" height="31.4" fill="#3f3d56"/><rect x="211.8" y="389.8" width="30.7" height="31.4" fill="#3f3d56"/><rect x="211.8" y="347" width="30.7" height="31.4" fill="#fff"/><rect x="211.8" y="389.8" width="30.7" height="31.4" fill="#fff"/><rect x="169.4" y="347" width="30.7" height="31.4" fill="#3f3d56"/><rect x="169.4" y="389.8" width="30.7" height="31.4" fill="#3f3d56"/><rect x="169.4" y="347" width="30.7" height="31.4" fill="#fff"/><rect x="169.4" y="389.8" width="30.7" height="31.4" fill="#fff"/><rect x="485" y="40" width="14" height="35" fill="#2c9ca2"/><rect x="379" y="72" width="119" height="405" fill="#2c9ca2"/><rect x="498" y="72" width="48" height="405" fill="#3f3d56"/><rect x="400.5" y="107" width="18" height="18" fill="#fff"/><rect x="429.5" y="107" width="18" height="18" fill="#fff"/><rect x="458.5" y="107" width="18" height="18" fill="#fff"/><rect x="401" y="148" width="18" height="18" fill="#fff"/><rect x="430" y="148" width="18" height="18" fill="#fff"/><rect x="459" y="148" width="18" height="18" fill="#fff"/><rect x="401.5" y="189" width="18" height="18" fill="#fff"/><rect x="430.5" y="189" width="18" height="18" fill="#fff"/><rect x="459.5" y="189" width="18" height="18" fill="#fff"/><rect x="402" y="230" width="18" height="18" fill="#fff"/><rect x="431" y="230" width="18" height="18" fill="#fff"/><rect x="460" y="230" width="18" height="18" fill="#fff"/><rect x="402.5" y="271" width="18" height="18" fill="#fff"/><rect x="431.5" y="271" width="18" height="18" fill="#fff"/><rect x="460.5" y="271" width="18" height="18" fill="#fff"/><rect x="403" y="312" width="18" height="18" fill="#fff"/><rect x="432" y="312" width="18" height="18" fill="#fff"/><rect x="461" y="312" width="18" height="18" fill="#fff"/><rect x="403.5" y="353" width="18" height="18" fill="#fff"/><rect x="432.5" y="353" width="18" height="18" fill="#fff"/><rect x="461.5" y="353" width="18" height="18" fill="#fff"/><rect x="404" y="394" width="18" height="18" fill="#fff"/><rect x="433" y="394" width="18" height="18" fill="#fff"/><rect x="433" y="442" width="18" height="34" fill="#fff"/><rect x="462" y="394" width="18" height="18" fill="#fff"/><rect x="498" y="40" width="8" height="34" fill="#3f3d56"/><rect x="635" y="218" width="14" height="20.7" fill="#2c9ca2"/><rect x="529" y="237" width="119" height="240" fill="#2c9ca2"/><rect x="648" y="237" width="48" height="240" fill="#3f3d56"/><rect x="552.5" y="271" width="18" height="18" fill="#fff"/><rect x="581.5" y="271" width="18" height="18" fill="#fff"/><rect x="610.5" y="271" width="18" height="18" fill="#fff"/><rect x="553" y="312" width="18" height="18" fill="#fff"/><rect x="582" y="312" width="18" height="18" fill="#fff"/><rect x="611" y="312" width="18" height="18" fill="#fff"/><rect x="553.5" y="353" width="18" height="18" fill="#fff"/><rect x="582.5" y="353" width="18" height="18" fill="#fff"/><rect x="611.5" y="353" width="18" height="18" fill="#fff"/><rect x="554" y="394" width="18" height="18" fill="#fff"/><rect x="583" y="394" width="18" height="18" fill="#fff"/><rect x="583" y="442" width="18" height="34" fill="#fff"/><rect x="612" y="394" width="18" height="18" fill="#fff"/><rect x="648" y="218" width="8" height="20.2" fill="#3f3d56"/><rect x="0.2" y="475.8" width="888" height="2.2" fill="#3f3d56"/><circle cx="732.7" cy="404" r="26" fill="#73ff85"/><path d="M752,386.6a26.06,26.06,0,0,1-43.4,27.6,26.05,26.05,0,1,0,47.9-20.5A26.37,26.37,0,0,0,752,386.6Z" opacity="0.2" style="isolation:isolate"/><polygon points="732.7 404 732.8 404 734.1 477.9 731.4 477.9 732.7 404" fill="#3f3d56"/><rect x="732.67" y="444.12" width="4.9" height="1.3" transform="translate(-122.56 393.73) rotate(-27.77)" fill="#3f3d56"/><circle cx="809.2" cy="365.6" r="39.6" fill="#73ff85"/><path d="M838.7,339.2a39.55,39.55,0,0,1-65.9,41.9,39.6,39.6,0,0,0,72.8-31.2h0A42.68,42.68,0,0,0,838.7,339.2Z" opacity="0.2" style="isolation:isolate"/><polygon points="809.3 365.6 809.4 365.6 811.4 477.9 807.3 477.9 809.3 365.6" fill="#3f3d56"/><rect x="809.15" y="426.54" width="7.4" height="2" transform="translate(-105.58 427.97) rotate(-27.77)" fill="#3f3d56"/><circle cx="26.7" cy="403" r="26" fill="#73ff85"/><path d="M46,385.6A26.06,26.06,0,0,1,2.6,413.2a26.05,26.05,0,1,0,47.9-20.5A26.37,26.37,0,0,0,46,385.6Z" opacity="0.2" style="isolation:isolate"/><polygon points="26.7 403 26.8 403 28.1 476.9 25.4 476.9 26.7 403" fill="#3f3d56"/><rect x="26.65" y="443.19" width="4.9" height="1.3" transform="translate(-203.44 64.68) rotate(-27.77)" fill="#3f3d56"/><path d="M606.4,37.3l9.2-7.4c-7.2-.8-10.1,3.1-11.3,6.2-5.6-2.3-11.7.7-11.7.7L611,43.5A14,14,0,0,0,606.4,37.3Z" fill="#3f3d56"/><path d="M144.4,74.3l9.2-7.4c-7.2-.8-10.1,3.1-11.3,6.2-5.6-2.3-11.7.7-11.7.7L149,80.5A14,14,0,0,0,144.4,74.3Z" fill="#3f3d56"/><path d="M746.4,112.3l9.2-7.4c-7.2-.8-10.1,3.1-11.3,6.2-5.6-2.3-11.7.7-11.7.7l18.4,6.7A14,14,0,0,0,746.4,112.3Z" fill="#3f3d56"/><path d="M220.4,54.3l9.2-7.4c-7.2-.8-10.1,3.1-11.3,6.2-5.6-2.3-11.7.7-11.7.7L225,60.5A14,14,0,0,0,220.4,54.3Z" fill="#3f3d56"/><path d="M237.4,134.3l9.2-7.4c-7.2-.8-10.1,3.1-11.3,6.2-5.6-2.3-11.7.7-11.7.7l18.4,6.7A14,14,0,0,0,237.4,134.3Z" fill="#3f3d56"/><path d="M595.4,176.3l9.2-7.4c-7.2-.8-10.1,3.1-11.3,6.2-5.6-2.3-11.7.7-11.7.7l18.4,6.7A14,14,0,0,0,595.4,176.3Z" fill="#3f3d56"/><polygon points="106 456 44 456 44 458 53.7 458 53.7 477 55.7 477 55.7 458 93.3 458 93.3 477 95.3 477 95.3 458 106 458 106 456" fill="#3f3d56"/><path d="M169,464a13.46,13.46,0,0,0-7,1.9,15.05,15.05,0,0,0-25.1,11.2h45.9A13.83,13.83,0,0,0,169,464Z" fill="#3f3d56"/><path d="M406,464a13.46,13.46,0,0,0-7,1.9,15.05,15.05,0,0,0-25.1,11.2h45.9A13.83,13.83,0,0,0,406,464Z" fill="#3f3d56"/><path d="M561,464a13.46,13.46,0,0,0-7,1.9,15.05,15.05,0,0,0-25.1,11.2h45.9A13.83,13.83,0,0,0,561,464Z" fill="#3f3d56"/><path d="M765,464a13.46,13.46,0,0,0-7,1.9,15.05,15.05,0,0,0-25.1,11.2h45.9A13.83,13.83,0,0,0,765,464Z" fill="#3f3d56"/><path d="M863,464a13.46,13.46,0,0,0-7,1.9,15.05,15.05,0,0,0-25.1,11.2h45.9A13.83,13.83,0,0,0,863,464Z" fill="#3f3d56"/><polygon points="129 407 113 407 113 423 120.4 423 120.4 476.9 122.4 476.9 122.4 423 129 423 129 407" fill="#3f3d56"/><rect x="44.1" y="450" width="62" height="2" fill="#3f3d56"/><rect x="44.1" y="445" width="62" height="2" fill="#3f3d56"/><rect x="44.1" y="440" width="62" height="2" fill="#3f3d56"/></svg>