<svg id="e7d73eaa-25fa-486a-81c6-86c739fe4253" xmlns="http://www.w3.org/2000/svg" viewBox="0 0 888 771.6"><title>login2</title><circle cx="416.6" cy="118.3" r="98" fill="#f83a39"/><path d="M78.7,755.9l47.8-71.1L78.8,763.6l.1,8c-3.5,0-6.9,0-10.4-.2l2.4-102.9-.1-.8.1-.2.2-9.7-52.4-76L71,650.6l.2,2.1L73,575,27.8,496l45.4,65.2-.5-161v0l3,126.9,41.2-51.6L75.8,538l.9,69.5,37.9-67.9L76.8,617.7l.5,38.7,55.2-94.5-55,108Z" transform="translate(0 0)" fill="#e6e6e6"/><path d="M184.1,311.8l-10.7,23.4,33.8,14.9s2.5-28.1,6-30.4Z" transform="translate(0 0)" fill="#a0616a"/><circle cx="200" cy="306.3" r="25" fill="#ffb9b9"/><path d="M213.9,292.6a46.73,46.73,0,0,0-9.1,1.5,7.79,7.79,0,0,0-3.5,1.5c-1.6,1.4-2,3.7-2.3,5.9L197.5,312a3.16,3.16,0,0,1-.7,1.9,4.53,4.53,0,0,1-2.1,1,13.34,13.34,0,0,0-7.1,4.8c-2.3,3.2-3.2,7.5-6.3,10-.8-7-6.4-12.5-9.4-18.9a26.6,26.6,0,0,1-2.3-13,20.29,20.29,0,0,1,.9-4.8,17,17,0,0,1,9.6-10.2c2.2-.9,4.6-1.3,6.6-2.6,1.1-.7,2-1.6,3.1-2.3a14.72,14.72,0,0,1,7.5-1.6,55.09,55.09,0,0,1,16.1,2.4c2.4.7,4.8,1.8,6.1,3.9a6.4,6.4,0,0,1-1.3,7.8,8.62,8.62,0,0,1-8,1.8" transform="translate(0 0)" fill="#2f2e41"/><path d="M173.5,313.8s30.4-29.7,53.8-13.9c0,0,2.5-23-12.8-28s-23.2-11.7-23.2-11.7l-15.1,4.2-3.7,18.7C172.5,283,166.4,308.3,173.5,313.8Z" transform="translate(0 0)" fill="#2c9ca2"/><circle cx="177.9" cy="252.9" r="14" fill="#2c9ca2"/><path d="M143.9,492.1s15.6,34.7,28.8,45.5l35.9,76.5L188.7,735.3s-17.1,31.1,31,10L260.5,604,223.8,495.7Z" transform="translate(0 0)" fill="#2f2e41"/><path d="M188.6,735.3s-23.2,31.9-1.1,33.9,35.4,1.2,43.4,1.1c7.7-.1,23,0,20.7-12.1s-30-14-30-14Z" transform="translate(0 0)" fill="#2f2e41"/><path d="M79.3,695s-30.8,24.6-10,32.5S103.1,738,110.9,740c7.4,1.9,22.2,6.1,23.1-6.2s-25.3-21.4-25.3-21.4Z" transform="translate(0 0)" fill="#2f2e41"/><path d="M137.8,449.6s.5,38,8.4,53.2l2.6,84.5-71.2,107s-16.5,22.3,36,22l86.8-117.8,9.2-114Z" transform="translate(0 0)" fill="#2f2e41"/><path d="M236.8,510.4c-.5,9.6-1,16.5-1.3,17.8-.4,2-10.1,3.5-23.7,4-20.6.7-50.2-1.2-70.4-8.3-3.9-1.4-6.9-4.8-9.2-9.6-6.9-14.4-7.2-40.3-6-55.3a190,190,0,0,1,3.1-21.2c.9-4.5,1.9-8.6,2.8-12.1,1.7-6.8,3.2-11.2,3.2-11.2l.2-9.9.2-12,.3-21.1v-1.7c-16.9-12.5,6.2-51.8,7-55.8s24,7.8,24,7.8l6.3-5.9,14.7,8,19-5.9,11.9,25.3s4,10.1,8.3,24.9c1.8,6.2,3.7,13.3,5.3,20.8.8,3.9,1.6,7.9,2.3,11.9.9,5.4,1.6,10.9,2.1,16.3.1,1.5.2,3,.4,4.6.3,3.9.5,7.9.7,12,.3,6.9.5,14.1.6,21C238.6,471.4,237.6,494.5,236.8,510.4Z" transform="translate(0 0)" fill="#3f3d56"/><path d="M132.1,425.6c1.8-6.8,3.2-11.2,3.2-11.2l.2-9.9,99.3-3.7c.9,5.4,1.6,10.9,2.1,16.3.1,1.5.2,3,.4,4.6Z" transform="translate(0 0)" fill="#2c9ca2"/><path d="M238.4,454.8l-112.2,4.1a190,190,0,0,1,3.1-21.2l108.5-4C238.1,440.7,238.3,447.8,238.4,454.8Z" transform="translate(0 0)" fill="#2c9ca2"/><path d="M236.8,510.4c-.5,9.6-1,16.5-1.3,17.8-.4,2-10.1,3.5-23.7,4-20.6.7-50.2-1.2-70.4-8.3-3.9-1.4-6.9-4.8-9.2-9.6Z" transform="translate(0 0)" fill="#2c9ca2"/><path d="M249.2,467.6s21,2.1,14,17.1-28.7.5-28.7.5Z" transform="translate(0 0)" fill="#ffb9b9"/><path d="M258.7,466.4l-18.4,26s-4.4-2.7-11.1-6.9c-2.1-1.3-4.4-2.7-6.8-4.2l-3.9-2.4c-2.2-1.4-4.5-2.8-6.8-4.3l-3.9-2.4c-2.2-1.4-4.5-2.9-6.8-4.3-16.5-10.5-32.7-21-35.9-24-4.7-4.4-15.4-36.9-21.6-56.8a44.52,44.52,0,0,1,6.2-39.5c8-11,16.5-11.9,23.5-9.6a22.88,22.88,0,0,1,15.4,22.6l-1.5,49.8,36.2,28.3,6.3,4.9,3.6,2.8,6.3,4.9,3.6,2.8,6.3,4.9Z" transform="translate(0 0)" fill="#3f3d56"/><path d="M141,359.4s18.8-38.1,42.7-25.2C183.8,334.2,158.1,330.1,141,359.4Z" transform="translate(0 0)" opacity="0.1" style="isolation:isolate"/><path d="M239.4,451.3l-21,27.4c-2.2-1.4-4.5-2.8-6.8-4.3l21.5-28.1Z" transform="translate(0 0)" fill="#2c9ca2"/><path d="M249.3,459.1l-20.2,26.4c-2.1-1.3-4.4-2.7-6.8-4.2l20.7-27Z" transform="translate(0 0)" fill="#2c9ca2"/><path d="M357,746.8l67.5-100.4L357.1,757.6l.1,11.3c-4.9,0-9.8,0-14.6-.2l3.3-145.2-.1-1.1.1-.2.3-13.7L272.5,501l73.8,97.1.3,2.9,2.5-109.7L285.2,380l64,92-.7-227.3v-.1l4.2,179.1,58.2-72.8-58,88.2,1.3,98.1,53.5-95.8L354.4,551.6l.7,54.6,78-133.2L355.5,625.4Z" transform="translate(0 0)" fill="#e6e6e6"/><path d="M808.7,755.9l47.8-71.1-47.7,78.8.1,8c-3.5,0-6.9,0-10.4-.2l2.4-102.9-.1-.8.1-.2.2-9.7-52.4-76L801,650.6l.2,2.1L803,575l-45.2-79,45.4,65.2-.5-161v0l3,126.9,41.2-51.6L805.8,538l.9,69.5,37.9-67.9-37.8,78.1.5,38.7,55.2-94.5-55,108Z" transform="translate(0 0)" fill="#e6e6e6"/><path d="M623.7,755.9l47.8-71.1-47.7,78.8.1,8c-3.5,0-6.9,0-10.4-.2l2.4-102.9-.1-.8.1-.2.2-9.7-52.4-76L616,650.6l.2,2.1L618,575l-45.2-79,45.4,65.2-.5-161v0l3,126.9,41.2-51.6L620.8,538l.9,69.5,37.9-67.9-37.8,78.1.5,38.7,55.2-94.5-55,108Z" transform="translate(0 0)" fill="#e6e6e6"/><path d="M493.2,737.8l99.1-147.3L493.4,753.7l.2,16.6c-7.2.1-14.4-.1-21.5-.4L477,556.8l-.1-1.6.2-.3.5-20.1L369,377.2,477.4,519.6l.4,4.3,3.7-161L387.8,199.6l94,135-1-333.5v0L487,264l85.4-106.8L487.3,286.6l1.9,144,78.6-140.5L489.5,451.8l1,80.1L604.8,336.1l-114,223.7Z" transform="translate(0 0)" fill="#3f3d56"/><path d="M734.7,744.2,657.5,629.5l77,127.1-.2,12.9c5.6,0,11.2-.1,16.7-.3l-3.8-166,.1-1.3-.1-.2-.4-15.7,84.5-122.7L747,574.3l-.3,3.3-2.9-125.4,73-127.2L743.6,430.2l.8-259.8v0l-4.8,204.7-66.5-83.2,66.3,100.8-1.5,112.2L676.7,395.4l61,126-.8,62.4-89-152.5,88.7,174.2Z" transform="translate(0 0)" fill="#3f3d56"/><rect y="768.7" width="888" height="2.2" fill="#3f3d56"/></svg>