<svg id="regular" enable-background="new 0 0 24 24" height="512" viewBox="0 0 24 24" width="512" xmlns="http://www.w3.org/2000/svg"><g><g><path d="m12.078 18.401c-.177 0-.354-.068-.489-.203l-5.788-5.788c-.259-.259-.271-.676-.027-.949l4.338-4.859c3.073-3.596 8.06-5.944 12.46-5.85.369.009.667.306.675.675.102 4.376-2.254 9.388-5.862 12.47l-4.848 4.328c-.13.118-.295.176-.459.176z" fill="#eceff1"/></g><g><path d="m9.272 6.764c-2.465 0-4.781.959-6.523 2.7l-.025.025c-.147.147-.199.366-.133.564s.238.342.445.371l3.437.493c.026.004.052.006.078.006.156 0 .306-.066.412-.185l2.721-3.057c.145-.162.18-.394.091-.592s-.286-.325-.503-.325z" fill="#2196f3"/></g><g><path d="m18.632 5.367c-.823-.832-2.173-.832-3.005 0-.823.823-.823 2.173 0 3.005.416.407.959.62 1.502.62s1.086-.212 1.502-.62c.825-.832.825-2.181.001-3.005z" fill="#2196f3"/></g><g><path d="m6.844 17.157c-1.108-1.099-3.019-1.099-4.127 0-.942.951-2.151 4.866-2.382 5.641-.074.249-.009.517.175.692.129.129.305.203.489.203.065 0 .129-.009.203-.028.776-.231 4.69-1.44 5.641-2.382.545-.554.849-1.283.849-2.059.001-.783-.304-1.513-.848-2.067z" fill="#ff9800"/></g><g><path d="m17.5 23.25c-.138 0-.275-.043-.391-.129-.543-.403-5.296-4.026-5.296-7.1 0-1.804 1.472-3.271 3.281-3.271.931 0 1.797.39 2.406 1.045.609-.655 1.476-1.045 2.406-1.045 1.809 0 3.281 1.467 3.281 3.271 0 3.073-4.754 6.696-5.296 7.1-.116.086-.253.129-.391.129z" fill="#f44336"/></g><g><path d="m17.5 24c-.157 0-.314-.049-.447-.148-.62-.461-6.053-4.602-6.053-8.114 0-2.061 1.683-3.738 3.75-3.738 1.063 0 2.054.446 2.75 1.194.696-.748 1.687-1.194 2.75-1.194 2.067 0 3.75 1.677 3.75 3.738 0 3.512-5.433 7.653-6.053 8.114-.133.099-.29.148-.447.148zm-2.75-10.5c-1.24 0-2.25 1.004-2.25 2.238 0 2.138 3.276 5.19 5 6.564 1.724-1.374 5-4.426 5-6.564 0-1.234-1.01-2.238-2.25-2.238-.897 0-1.707.527-2.063 1.342-.238.548-1.137.548-1.375 0-.355-.815-1.165-1.342-2.062-1.342z"/></g><g><path d="m6.681 11.673c-.035 0-.071-.002-.107-.008l-4.677-.67c-.281-.04-.516-.236-.605-.505-.09-.269-.02-.566.182-.767 2.369-2.369 5.604-3.708 8.91-3.708.414 0 .75.336.75.75s-.336.75-.75.75c-2.396 0-4.75.799-6.654 2.229l3.058.438c.41.059.694.438.636.849-.056.372-.376.642-.743.642z"/></g><g><path d="m.75 24c-.196 0-.388-.077-.53-.22-.195-.195-.268-.481-.188-.746.252-.841 1.561-5.089 2.582-6.11 1.191-1.192 3.271-1.192 4.463 0 1.229 1.23 1.229 3.232 0 4.462-1.021 1.021-5.27 2.33-6.111 2.582-.071.022-.144.032-.216.032zm4.095-6.5c-.424 0-.848.162-1.171.484-.436.436-1.187 2.364-1.771 4.112 1.748-.584 3.677-1.335 4.112-1.771.645-.646.645-1.696 0-2.341-.323-.322-.746-.484-1.17-.484zm1.701 3.356h.01z"/></g><g><path d="m17.133 9.367c-.668 0-1.296-.26-1.768-.732-.975-.975-.975-2.561 0-3.536.943-.944 2.59-.945 3.535 0 .975.975.975 2.561 0 3.536-.472.472-1.1.732-1.767.732zm1.237-1.262h.01zm-1.237-2.237c-.268 0-.519.104-.707.292-.39.39-.39 1.024 0 1.415.377.377 1.037.378 1.414 0 .39-.39.39-1.024 0-1.415-.189-.188-.441-.292-.707-.292z"/></g><g><path d="m9.01 16.28c-.192 0-.384-.073-.53-.22l-3.41-3.41c-.281-.281-.294-.733-.029-1.029l4.7-5.27c3.34-3.904 8.772-6.44 13.527-6.351.4.009.724.333.732.733.071 3.205-.999 6.646-3.015 9.69-.228.345-.691.44-1.039.211-.346-.229-.44-.694-.211-1.04 1.691-2.556 2.657-5.4 2.759-8.09-4.138.163-8.724 2.443-11.625 5.832l-4.238 4.753 2.909 2.911c.293.293.293.768 0 1.061-.146.146-.338.219-.53.219z"/></g></g></svg>