<svg id="_x31_-outline-expand" enable-background="new 0 0 64 64" height="512" viewBox="0 0 64 64" width="512" xmlns="http://www.w3.org/2000/svg"><path d="m27.779 24.146-7.524-20.672 5.638-2.052 13.162 18.621z" fill="#42a5b2"/><path d="m4.799 28.254 45.178-16.443c1.142-.416 2.411-.29 3.449.342l3.826 2.33c2.076-.755 4.372.315 5.127 2.391.756 2.076-.314 4.371-2.391 5.127l-31.949 11.628-21.188.263z" fill="#62c4c3"/><path d="m5.138 17.489-3.759 1.368 3.42 9.397 7.518-2.736z" fill="#42a5b2"/><path d="m29.148 27.905 7.523 20.673 5.64-2.052-1.888-22.725z" fill="#42a5b2"/><g fill="#3a4249"><path d="m51.122 13.741h5v2h-5z" transform="matrix(.94 -.342 .342 .94 -1.809 19.212)"/><path d="m44.634 16.648h1.999v1.999h-1.999z" transform="matrix(.94 -.342 .342 .94 -3.284 16.666)"/><path d="m40.875 18.016h1.999v1.999h-1.999z" transform="matrix(.94 -.342 .342 .94 -3.978 15.463)"/><path d="m37.117 19.385h1.999v1.999h-1.999z" transform="matrix(.94 -.342 .342 .94 -4.672 14.26)"/><path d="m33.358 20.753h1.999v1.999h-1.999z" transform="matrix(.94 -.342 .342 .94 -5.367 13.058)"/><path d="m29.599 22.121h1.999v1.999h-1.999z" transform="matrix(.94 -.342 .342 .94 -6.061 11.855)"/><path d="m25.84 23.489h1.999v1.999h-1.999z" transform="matrix(.94 -.342 .342 .94 -6.755 10.652)"/><path d="m22.081 24.857h1.999v1.999h-1.999z" transform="matrix(.94 -.342 .342 .94 -7.449 9.45)"/><path d="m18.323 26.225h2v2h-2z" transform="matrix(.94 -.342 .342 .94 -8.152 8.26)"/><path d="m14.564 27.593h2v2h-2z" transform="matrix(.94 -.342 .342 .94 -8.848 7.056)"/><path d="m36 54h-17c-3.309 0-6-2.691-6-6s2.691-6 6-6h7v2h-7c-2.206 0-4 1.794-4 4s1.794 4 4 4h17z"/><path d="m38 52h2v2h-2z"/><path d="m50.5 61h-31.5v-2h31.5c1.379 0 2.5-1.122 2.5-2.5s-1.121-2.5-2.5-2.5h-8.5v-2h8.5c2.481 0 4.5 2.019 4.5 4.5s-2.019 4.5-4.5 4.5z"/><path d="m7 59h10v2h-10z"/></g><circle cx="5" cy="60" fill="#efbc2e" r="3"/><circle cx="28" cy="43" fill="#efbc2e" r="3"/></svg>