<?xml version="1.0" encoding="iso-8859-1"?>
<!-- Generator: Adobe Illustrator 21.0.0, SVG Export Plug-In . SVG Version: 6.00 Build 0)  -->
<svg version="1.1" id="Capa_1" xmlns="http://www.w3.org/2000/svg" xmlns:xlink="http://www.w3.org/1999/xlink" x="0px" y="0px"
	 viewBox="0 0 512 512" style="enable-background:new 0 0 512 512;" xml:space="preserve">
<g>
	<g transform="translate(0 1)">
		<path style="fill:#FDD834;" d="M383.998,41.667V383l-42.667,68.267H93.865c-9.414-0.028-17.039-7.653-17.067-17.067V43.117
			c-0.284-17.94,12.999-33.21,30.805-35.413c1.109-0.085,2.219-0.171,3.328-0.171h238.933
			C368.716,7.533,383.998,22.815,383.998,41.667z"/>
		<path style="fill:#FFEB3A;" d="M358.398,41.667V383l-42.667,68.267H93.865c-9.414-0.028-17.039-7.653-17.067-17.067V43.117
			c-0.284-17.94,12.999-33.21,30.805-35.413c1.109-0.085,2.219-0.171,3.328-0.171h213.333
			C343.116,7.533,358.398,22.815,358.398,41.667z"/>
		<path style="fill:#FDD834;" d="M341.331,383v68.267H93.865c-9.414-0.028-17.039-7.653-17.067-17.067V43.117
			c-0.284-17.94,12.999-33.21,30.805-35.413c1.109-0.085,2.219-0.171,3.328-0.171h0.085c18.818,0.047,34.048,15.315,34.048,34.133
			v324.267c0.028,9.414,7.653,17.039,17.067,17.067H341.331z"/>
		<path style="fill:#FFE0B2;" d="M435.198,349.805c-0.142,6.555-0.798,13.089-1.963,19.541c-1.28,7.595-3.072,15.189-4.864,22.699
			c-8.277,34.987-17.579,75.349-25.344,110.421h-120.32c-20.48-63.061-2.048-136.619-1.109-136.619v-93.781
			c0-14.138,11.461-25.6,25.6-25.6c14.139,0,25.6,11.462,25.6,25.6V357.4c-0.013,1.288,0.101,2.574,0.341,3.84
			c0.571,4.121,2.187,8.028,4.693,11.349c1.674,2.343,3.755,4.366,6.144,5.973c0.521,0.345,1.063,0.658,1.621,0.939
			c3.858,2.335,8.291,3.547,12.8,3.499c0.457,0.014,0.914-0.014,1.365-0.085c4.23-0.187,8.342-1.45,11.947-3.669
			c0.085,0,0.171-0.085,0.256-0.171c7.507-4.641,12.063-12.849,12.032-21.675V220.867c0,2.731,5.12,8.619,6.4,10.923
			c5.376,9.472,10.496,19.115,15.189,28.928c11.605,23.979,24.149,44.629,28.245,71.083
			C434.799,337.752,435.256,343.776,435.198,349.805z"/>
		<path style="fill:#FFECB3;" d="M409.598,349.805c-0.142,6.555-0.798,13.089-1.963,19.541c-1.28,7.595-3.072,15.189-4.864,22.699
			c-8.277,34.987-17.579,75.349-25.344,110.421h-94.72c-20.48-63.061-2.048-136.619-1.109-136.619v-93.781
			c-0.006-9.152,4.874-17.611,12.8-22.187c1.92,1.15,3.696,2.525,5.291,4.096c4.808,4.793,7.51,11.302,7.509,18.091V357.4
			c-0.013,1.288,0.101,2.574,0.341,3.84c0.571,4.121,2.187,8.028,4.693,11.349c1.674,2.343,3.755,4.366,6.144,5.973
			c4.244,2.911,9.275,4.459,14.421,4.437c0.457,0.014,0.914-0.014,1.365-0.085c4.032-0.193,7.957-1.364,11.435-3.413
			c3.858,2.335,8.291,3.547,12.8,3.499c0.457,0.014,0.914-0.014,1.365-0.085c4.23-0.187,8.342-1.45,11.947-3.669
			c0.085,0,0.171-0.085,0.256-0.171c7.507-4.641,12.063-12.849,12.032-21.675v-88.491c11.454,19.502,19.64,40.746,24.235,62.891
			C409.199,337.752,409.656,343.776,409.598,349.805z"/>
		<path style="fill:#02A9F4;" d="M281.598,315.416v7.851h-102.4v-7.851c0.001-5.72,3.004-11.02,7.91-13.961l25.856-15.522
			c0.715-0.413,1.152-1.179,1.143-2.005v-7.236c-0.003-0.485-0.159-0.956-0.444-1.348c-2.992-3.918-5.113-8.431-6.221-13.235
			c-0.336-1.718-1.173-3.297-2.406-4.54c-1.642-1.639-2.564-3.866-2.56-6.187v-8.269c0-1.36,0.318-2.702,0.93-3.917l0.478-0.956
			c0.604-1.22,0.916-2.564,0.913-3.925V222.42c0-10.283,8.336-18.62,18.62-18.62h13.961c10.283,0,18.62,8.336,18.62,18.62v11.895
			c0.001,1.359,0.316,2.7,0.922,3.917l0.478,0.956c0.612,1.215,0.93,2.556,0.93,3.917v8.269c0.004,2.321-0.918,4.547-2.56,6.187
			c-1.233,1.242-2.07,2.822-2.406,4.54c-1.107,4.804-3.228,9.317-6.221,13.235c-0.285,0.392-0.44,0.864-0.444,1.348v7.236
			c-0.009,0.826,0.428,1.592,1.143,2.005l25.856,15.522C278.601,304.392,281.601,309.695,281.598,315.416z"/>
		<path style="fill:#E91E63;" d="M281.598,163.992v5.675h-102.4v-5.675c0.069-5.753,3.237-11.022,8.286-13.781
			c0,0,15.616-7.91,24.678-13.039c0.938-0.518,1.388-1.619,1.082-2.645c-0.306-1.027-1.286-1.701-2.354-1.621h-24.183
			c-1.763,0.152-3.456-0.721-4.355-2.245c-0.899-1.524-0.845-3.428,0.14-4.898c7.261-10.805,12.382-22.902,15.087-35.635
			c0.754-3.3,1.131-6.675,1.126-10.061c0.036-8.02,3.398-15.665,9.284-21.111c12.659-11.672,32.158-11.672,44.817,0
			c5.887,5.447,9.249,13.092,9.284,21.111c-0.005,3.385,0.373,6.76,1.126,10.061c2.705,12.734,7.826,24.831,15.087,35.635
			c0.985,1.47,1.039,3.374,0.14,4.898c-0.899,1.524-2.593,2.396-4.355,2.245h-24.183c-1.068-0.08-2.048,0.595-2.354,1.621
			c-0.306,1.027,0.145,2.128,1.082,2.645c9.062,5.12,24.678,13.039,24.678,13.039C278.361,152.97,281.529,158.239,281.598,163.992z"
			/>
	</g>
	<g>
		<path d="M93.865,460.8H265.7c1.256,15.385,4.233,30.581,8.875,45.303c1.142,3.516,4.418,5.896,8.115,5.897h120.32
			c4.002,0.003,7.469-2.775,8.337-6.682c8.192-36.881,17.425-77.073,25.318-110.276c1.801-7.552,3.652-15.36,5.001-23.305
			c1.229-6.885,1.919-13.855,2.065-20.847c0.055-6.497-0.43-12.988-1.451-19.405c-4.15-21.159-11.731-41.498-22.443-60.211
			c-2.176-4.335-4.386-8.721-6.562-13.235c-4.881-10.086-10.078-20.011-15.454-29.491c-0.503-0.853-1.417-2.193-2.483-3.661
			c-0.768-1.058-2.21-3.063-2.825-4.19V42.667C392.486,19.114,373.4,0.028,349.848,0H110.931c-0.372,0.048-0.74,0.122-1.101,0.222
			c-1.024,0-2.039-0.128-3.055,0C85.688,2.797,69.528,20.2,68.521,41.421c-0.12,0.407-0.206,0.824-0.256,1.246V435.2
			C68.265,449.339,79.726,460.8,93.865,460.8z M392.531,254.66c1.835,3.567,3.627,7.177,5.385,10.795
			c2.219,4.599,4.463,9.071,6.69,13.491c9.831,17.162,16.851,35.787,20.796,55.168c0.879,5.491,1.302,11.045,1.263,16.606
			c-0.12,6.105-0.719,12.191-1.792,18.202c-1.254,7.39-3.038,14.925-4.779,22.187c-7.45,31.292-16.06,68.736-23.893,103.825H289.013
			c-3.809-13.886-6.134-28.137-6.938-42.513c0-0.051,0-0.102,0-0.154s-0.051-0.162-0.06-0.256
			c-1.711-27.316,0.703-54.734,7.159-81.331c0.614-1.185,0.941-2.497,0.956-3.831v-42.496v-0.085v-7.851v-0.128v-43.221
			c0.005-6.9,4.164-13.118,10.54-15.757c6.376-2.639,13.713-1.179,18.593,3.7c3.212,3.189,5.013,7.531,5.001,12.058V358.4
			c-0.016,1.694,0.127,3.385,0.427,5.052c1.428,9.364,6.654,17.724,14.447,23.108c5.665,3.899,12.383,5.982,19.26,5.973
			c0.71,0.004,1.419-0.033,2.125-0.111c5.535-0.314,10.906-1.994,15.633-4.89l0.393-0.239c9.942-6.242,15.978-17.155,15.983-28.894
			V254.66z M375.465,42.667V358.4c0.014,5.853-2.997,11.297-7.962,14.396l-0.324,0.213c-2.346,1.435-5.018,2.254-7.765,2.381
			c-0.34-0.008-0.68,0.018-1.015,0.077c-3.441,0.013-6.805-1.023-9.643-2.97c-1.617-1.1-3.019-2.485-4.139-4.087
			c-1.694-2.286-2.765-4.974-3.106-7.799c-0.131-0.729-0.191-1.469-0.179-2.21v-25.6h8.533c4.713,0,8.533-3.82,8.533-8.533
			s-3.82-8.533-8.533-8.533h-8.533v-42.667c0-18.851-15.282-34.133-34.133-34.133c-18.851,0-34.133,15.282-34.133,34.133v19.055
			l-17.826-10.701v-1.766c3.138-4.552,5.372-9.665,6.579-15.061c3.249-3.234,5.069-7.635,5.052-12.22v-8.269
			c-0.006-2.665-0.625-5.293-1.809-7.68l-0.529-1.109V223.42c-0.019-14.988-12.165-27.134-27.153-27.153h-13.961
			c-14.988,0.019-27.134,12.165-27.153,27.153v12.015l-0.469,0.939c-1.192,2.403-1.814,5.049-1.818,7.731v8.269
			c0.01,4.66,1.849,9.131,5.12,12.45c1.181,5.318,3.387,10.356,6.494,14.831v1.758l-22.852,13.73
			c-7.466,4.494-12.044,12.56-12.075,21.274v7.851c0,4.713,3.821,8.533,8.533,8.533h93.867v33.28
			c-0.674,2.304-1.468,5.495-2.287,9.387H162.131c-4.713,0-8.533-3.82-8.533-8.533V42.667c-0.032-9.244-3.066-18.228-8.644-25.6
			h204.911C364.003,17.067,375.465,28.528,375.465,42.667z M217.214,294.332c3.353-1.938,5.421-5.514,5.427-9.387v-7.236
			c-0.001-2.286-0.723-4.514-2.065-6.366c-2.263-2.921-3.889-6.284-4.77-9.873c-0.679-3.43-2.346-6.586-4.796-9.079v-8.397
			l0.469-0.93c1.209-2.404,1.843-5.057,1.852-7.748V223.42c0.005-5.569,4.518-10.082,10.086-10.086h13.961
			c5.569,0.005,10.082,4.518,10.086,10.086v11.895c0.006,2.666,0.628,5.294,1.818,7.68l0.503,1.084l-0.06,8.431
			c-2.425,2.418-4.071,5.505-4.727,8.866c-0.884,3.627-2.524,7.026-4.813,9.975c-1.323,1.84-2.033,4.049-2.031,6.315v7.236
			c-0.013,3.822,1.996,7.366,5.282,9.318l25.856,15.522c2.157,1.264,3.565,3.499,3.772,5.99h-85.333
			c0.205-2.479,1.598-4.705,3.738-5.973L217.214,294.332z M108.371,17.186c7.219-0.747,14.413,1.632,19.763,6.537
			c5.338,4.854,8.385,11.73,8.397,18.944v324.267c0,14.138,11.462,25.6,25.6,25.6h105.643c-2.415,16.954-3.434,34.079-3.046,51.2
			H93.865c-4.713,0-8.533-3.821-8.533-8.533V44.134C85.044,30.601,94.957,19.005,108.371,17.186z"/>
		<path d="M179.198,179.2h102.4c4.713,0,8.533-3.821,8.533-8.533v-5.675c-0.119-8.957-5.084-17.146-12.971-21.393l-2.304-1.178
			c4.898-0.218,9.295-3.068,11.494-7.45c2.171-4.312,1.697-9.483-1.22-13.329c-6.511-9.869-11.124-20.866-13.602-32.427
			c-0.604-2.677-0.907-5.413-0.905-8.158c-0.015-10.367-4.344-20.26-11.947-27.307c-15.947-14.77-40.578-14.77-56.525,0
			c-7.603,7.047-11.931,16.94-11.947,27.307c0.002,2.736-0.298,5.463-0.896,8.132c-2.478,11.561-7.091,22.558-13.602,32.427
			c-2.923,3.85-3.4,9.028-1.229,13.346c2.201,4.384,6.602,7.235,11.503,7.45l-2.662,1.365c-7.733,4.274-12.567,12.379-12.655,21.214
			v5.675C170.665,175.38,174.485,179.2,179.198,179.2z M191.349,158.822c0.64-0.324,15.898-8.064,25.02-13.227
			c4.287-2.38,6.399-7.376,5.12-12.109c-1.29-4.806-5.657-8.138-10.633-8.115h-17.246c5.623-10.134,9.761-21.022,12.288-32.333
			c0.891-3.92,1.341-7.927,1.34-11.947c0.032-5.669,2.426-11.068,6.605-14.899c9.475-8.293,23.625-8.293,33.101,0
			c4.175,3.824,6.571,9.212,6.613,14.874c-0.003,4.037,0.449,8.062,1.348,11.998c2.524,11.302,6.66,22.182,12.279,32.307h-17.28
			c-4.975-0.02-9.34,3.311-10.633,8.115c-1.279,4.733,0.833,9.729,5.12,12.109c9.122,5.163,24.38,12.902,24.67,13.039
			c1.449,0.788,2.613,2.012,3.328,3.499h-84.036C188.979,160.742,190.027,159.583,191.349,158.822z"/>
		<path d="M315.731,179.2h34.133c4.713,0,8.533-3.821,8.533-8.533c0-4.713-3.82-8.533-8.533-8.533h-34.133
			c-4.713,0-8.533,3.821-8.533,8.533C307.198,175.38,311.018,179.2,315.731,179.2z"/>
	</g>
</g>
<g>
</g>
<g>
</g>
<g>
</g>
<g>
</g>
<g>
</g>
<g>
</g>
<g>
</g>
<g>
</g>
<g>
</g>
<g>
</g>
<g>
</g>
<g>
</g>
<g>
</g>
<g>
</g>
<g>
</g>
</svg>
