<svg id="Capa_1" enable-background="new 0 0 512 512" height="512" viewBox="0 0 512 512" width="512" xmlns="http://www.w3.org/2000/svg"><g><path id="XMLID_2003_" d="m391 120h121v392h-121z" fill="#4d5788"/><path id="XMLID_2000_" d="m0 120h121v392h-121z" fill="#667197"/><path id="XMLID_2026_" d="m411 502-110 10-45-10-45.001 10h-119.999v-512h165l155 10 10 278.334z" fill="#9cd6f4"/><path id="XMLID_2001_" d="m421 512h-120l-45-20v-492h165z" fill="#7fa6fb"/><path id="XMLID_2024_" d="m151 60h30v30h-30z" fill="#667197"/><path id="XMLID_2023_" d="m211 60h30v30h-30z" fill="#667197"/><path id="XMLID_2022_" d="m271 60h30v30h-30z" fill="#4d5788"/><path id="XMLID_2021_" d="m331 60h30v30h-30z" fill="#4d5788"/><path id="XMLID_2020_" d="m151 120h30v30h-30z" fill="#667197"/><path id="XMLID_2019_" d="m211 120h30v30h-30z" fill="#667197"/><path id="XMLID_2018_" d="m271 120h30v30h-30z" fill="#4d5788"/><path id="XMLID_2017_" d="m331 120h30v30h-30z" fill="#4d5788"/><path id="XMLID_2016_" d="m151 180h30v30h-30z" fill="#667197"/><path id="XMLID_2015_" d="m211 180h30v30h-30z" fill="#667197"/><path id="XMLID_2014_" d="m271 180h30v30h-30z" fill="#4d5788"/><path id="XMLID_2013_" d="m331 180h30v30h-30z" fill="#4d5788"/><path id="XMLID_2012_" d="m151 240h30v30h-30z" fill="#667197"/><path id="XMLID_2011_" d="m211 240h30v30h-30z" fill="#667197"/><path id="XMLID_2010_" d="m271 240h30v30h-30z" fill="#4d5788"/><path id="XMLID_2009_" d="m331 240h30v30h-30z" fill="#4d5788"/><path id="XMLID_2008_" d="m151 300h30v30h-30z" fill="#667197"/><path id="XMLID_2007_" d="m211 300h30v30h-30z" fill="#667197"/><path id="XMLID_2006_" d="m271 300h30v30h-30z" fill="#4d5788"/><path id="XMLID_2005_" d="m331 300h30v30h-30z" fill="#4d5788"/><path id="XMLID_1972_" d="m211 375h90v137h-90z" fill="#eef4ff"/><path id="XMLID_132_" d="m256 375h45v137h-45z" fill="#d9e6fc"/></g></svg>