<svg id="Layer_1" enable-background="new 0 0 512 512" height="512" viewBox="0 0 512 512" width="512" xmlns="http://www.w3.org/2000/svg"><g><g clip-rule="evenodd" fill-rule="evenodd"><path d="m55.184 251.596h150.613v40h-150.613z" fill="#fff"/><path d="m205.797 291.596h-150.613-45.184v40h20.083 200.815 20.082v-40z" fill="#ff9c9b"/><path d="m230.898 331.596h-200.815v120.004h20.082 40.165 40.164v-80.003h60.239v80.003h40.165v-80.003z" fill="#ff5a58"/><g fill="#ff9c9b"><path d="m130.494 371.597h60.239v80.003h-60.239z"/><path d="m50.165 502v-50.4h-20.082-20.083v50.4z"/><path d="m50.165 451.6h40.165v50.4h-40.165z"/><path d="m90.33 451.6h40.165v50.4h-40.165z"/></g><path d="m130.494 451.6v50.4h140.563v-50.4h-40.159-40.165z" fill="#ff5a58"/><path d="m271.057 451.6h40.165v50.4h-40.165z" fill="#ffda8f"/><path d="m311.222 451.6h40.165v50.4h-40.165z" fill="#ffda8f"/><path d="m351.387 451.6v50.4h40.165v-50.4h-20.083z" fill="#ffda8f"/><path d="m311.222 451.6h40.165 20.082v-80.005l-140.571.002v80.003h40.159z" fill="#ffc144"/><path d="m230.898 371.597 140.571-.002 20.083.002v-40h-40.165l-100.407-.001h-20.082z" fill="#ffda8f"/><path d="m371.469 371.595v80.005h20.083v50.4h100.407v-250.404h-140.572v80.001h40.165v40z" fill="#fff"/><path d="m351.387 251.596h140.572 10.041v-40.001h-160.654v40.001z" fill="#e8eaf0"/><path d="m341.346 211.595h160.654v-40.001h-10.041-50.167-40.238-50.167-10.041z" fill="#e8eaf0"/><path d="m401.554 120.001h40.238v51.593h-40.238z" fill="#b6bccf"/><path d="m401.554 120.001h40.238v51.593h50.167v-91.594h-140.572v91.594h50.167z" fill="#fff"/><path d="m351.387 80h140.572 10.041l-80.327-70-80.327 70z" fill="#60a4ff"/></g><g><path d="m502 161.595h-.041v-.001-71.594h.041c4.17 0 7.902-2.587 9.364-6.492 1.463-3.905.35-8.308-2.794-11.047l-80.326-70c-3.768-3.281-9.376-3.281-13.14 0l-80.328 70c-3.145 2.739-4.258 7.142-2.795 11.047 1.462 3.905 5.194 6.492 9.364 6.492h.041v71.594.001h-.041c-5.522 0-10 4.478-10 10v80.002c0 5.522 4.478 10 10 10h.041v60.001h-80.406v-30.002c0-5.522-4.477-10-10-10h-35.184v-29.999c0-5.522-4.477-10-10-10h-150.612c-5.523 0-10 4.478-10 10v29.999h-35.184c-5.523 0-10 4.478-10 10v40c0 5.522 4.477 10 10 10h10.083v100.004h-10.083c-5.523 0-10 4.478-10 10v50.4c0 5.522 4.477 10 10 10h381.551 100.407c5.522 0 10-4.478 10-10v-240.403h.042c5.522 0 10-4.478 10-10v-80.002c0-5.523-4.478-10-10-10zm-10 80.002h-140.655v-20.001h.001 140.654zm0-60.002v20.001h-140.654-.001v-20.001zm-60.208-20h-20.238v-.001-31.593h20.238v31.594c0-.001 0-.001 0 0zm-10.119-138.33 53.63 46.735h-107.26zm-60.287 138.329v-71.594h120.572v71.594.001h-30.167v-.001-41.593c0-5.522-4.478-10-10-10h-40.238c-5.522 0-10 4.478-10 10v41.593.001zm20.165 180.004v19.999h-140.653v-20.001h10.043c.013 0 .026.002.039.002zm0 150.402h-20.165v-30.4h20.165zm-301.221-30.4v30.4h-20.165v-30.4zm20 0h20.165v30.399.001h-20.165zm40.164 30.399v-30.399h120.563v30.4zm40.239-50.399h-40.239v-60.003h40.239zm100.324 20h20.165v30.4h-20.165zm40.165 0h20.164v30.4h-20.164zm40.247-60.001h-7.802c-5.522 0-10 4.478-10 10s4.478 10 10 10h7.802v20.001h-120.571v-20.001h7.651c5.523 0 10-4.478 10-10s-4.477-10-10-10h-7.651v-20.002h120.571zm-341.469-80.003v-20h65.487c5.523 0 10-4.478 10-10s-4.477-10-10-10h-20.303v-19.999h130.613v19.999h-20.31c-5.523 0-10 4.478-10 10s4.477 10 10 10h65.493v20zm20.083 100.003h15.101c5.523 0 10-4.478 10-10s-4.477-10-10-10h-15.101v-20.002h15.101c5.523 0 10-4.478 10-10s-4.477-10-10-10h-15.101v-20.001h180.815v100.004h-20.165v-70.003c0-5.522-4.477-10-10-10h-60.239c-5.523 0-10 4.478-10 10v70.003h-80.411zm-20.083 40.001h20.165v30.4h-20.165zm461.959 30.4h-80.407v-40.4c0-5.522-4.478-10-10-10h-10.082v-60.003h10.082c5.522 0 10-4.478 10-10v-29.999h40.24c5.522 0 10-4.478 10-10s-4.478-10-10-10h-50.24-30.165v-60.001h120.572z"/><path d="m130.49 281.596h-.007c-5.523 0-9.996 4.478-9.996 10s4.48 10 10.003 10 10-4.478 10-10-4.477-10-10-10z"/></g></g></svg>