<svg id="Layer_1" enable-background="new 0 0 512 512" height="512" viewBox="0 0 512 512" width="512" xmlns="http://www.w3.org/2000/svg"><g><path d="m411.415 107.09c0 11.17-9.08 20.22-20.28 20.22h-264.46c-5.6 0-10.67-2.26-14.34-5.92s-5.94-8.71-5.94-14.3c0-5.37 4.37-9.73 9.76-9.73h285.5c2.69 0 5.13 1.09 6.9 2.85 1.771 1.76 2.86 4.19 2.86 6.88z" fill="#46637f"/><path d="m408.555 100.21c1.77 1.76 2.86 4.19 2.86 6.88 0 11.17-9.08 20.22-20.28 20.22h-30c11.2 0 20.28-9.05 20.28-20.22 0-2.69-1.09-5.12-2.86-6.88s-4.21-2.85-6.9-2.85h30c2.691 0 5.13 1.09 6.9 2.85z" fill="#234063"/><path d="m439.495 484.28c0 11.17-9.09 20.22-20.32 20.22h-326.349c-5.62 0-10.7-2.26-14.38-5.92s-5.95-8.72-5.95-14.3c0-5.38 4.38-9.73 9.79-9.73h347.43c2.71 0 5.15 1.09 6.92 2.85s2.859 4.19 2.859 6.88z" fill="#53f46e"/><path d="m436.635 477.4c1.77 1.76 2.86 4.19 2.86 6.88 0 11.17-9.09 20.22-20.32 20.22h-30c11.23 0 20.32-9.05 20.32-20.22 0-2.69-1.09-5.12-2.86-6.88s-4.21-2.85-6.92-2.85h30c2.71 0 5.15 1.09 6.92 2.85z" fill="#33e279"/><path d="m126.675 127.42h264.46v347.13h-264.46z" fill="#ffff4d"/><path d="m391.135 127.42v347.13h-264.46v-22.65h222.15c11.09 0 20.09-9 20.09-20.1v-304.38z" fill="#ffe150"/><g><g><path d="m156.695 157.54h40v60h-40z" fill="#40d7ff"/><path d="m156.695 157.54h40v30h-40z" fill="#46637f"/></g><g><path d="m156.693 247.38h40v60h-40z" fill="#40d7ff"/><path d="m156.693 247.38h40v30h-40z" fill="#46637f"/></g><g><path d="m156.693 337.316h40v91.781h-40z" fill="#40d7ff"/><path d="m156.693 337.316h40v30h-40z" fill="#46637f"/></g></g><g><g><path d="m321.406 157.54h40v60h-40z" fill="#40d7ff"/><path d="m321.406 157.54h40v30h-40z" fill="#46637f"/></g><g><path d="m321.404 247.38h40v60h-40z" fill="#40d7ff"/><path d="m321.404 247.38h40v30h-40z" fill="#46637f"/></g><g><path d="m321.404 337.316h40v91.781h-40z" fill="#40d7ff"/><path d="m321.404 337.316h40v30h-40z" fill="#46637f"/></g></g><g><g><path d="m238.909 157.54h40v60h-40z" fill="#40d7ff"/><path d="m238.909 157.54h40v30h-40z" fill="#46637f"/></g><g><path d="m238.906 247.38h40v60h-40z" fill="#40d7ff"/><path d="m238.906 247.38h40v30h-40z" fill="#46637f"/></g><g><path d="m238.905 337.32h40v137.23h-40z" fill="#40d7ff"/><path d="m238.906 337.316h40v30h-40z" fill="#46637f"/></g></g><path d="m238.905 451.9h40v22.65h-40z" fill="#2aa6f2"/></g><g><path d="m303.275 74.86h28.859c4.143 0 7.5-3.357 7.5-7.5s-3.357-7.5-7.5-7.5h-21.359v-14.93h21.359c4.143 0 7.5-3.357 7.5-7.5s-3.357-7.5-7.5-7.5h-21.359v-14.93h21.359c4.143 0 7.5-3.357 7.5-7.5s-3.357-7.5-7.5-7.5h-28.859c-4.143 0-7.5 3.357-7.5 7.5v59.86c0 4.143 3.358 7.5 7.5 7.5z"/><path d="m244.53 15h7.431v52.36c0 4.143 3.357 7.5 7.5 7.5s7.5-3.357 7.5-7.5v-52.36h7.43c4.143 0 7.5-3.357 7.5-7.5s-3.357-7.5-7.5-7.5h-29.86c-4.143 0-7.5 3.357-7.5 7.5s3.357 7.5 7.499 7.5z"/><path d="m186.677 74.86h29.86c4.143 0 7.5-3.357 7.5-7.5v-59.86c0-4.143-3.357-7.5-7.5-7.5h-29.86c-4.143 0-7.5 3.357-7.5 7.5v59.86c0 4.143 3.357 7.5 7.5 7.5zm7.5-59.86h14.86v44.86h-14.86z"/><path d="m429.72 467.048h-31.085v-333.262c11.689-3.273 20.284-14.001 20.284-26.694 0-9.501-7.743-17.231-17.261-17.231h-3.023v-22.5c0-4.143-3.357-7.5-7.5-7.5h-21.359v-52.361c0-4.143-3.357-7.5-7.5-7.5s-7.5 3.357-7.5 7.5v59.86c0 4.143 3.357 7.5 7.5 7.5h21.359v15h-249.458v-44.93h14.86v22.43c0 4.143 3.357 7.5 7.5 7.5s7.5-3.357 7.5-7.5v-59.86c0-4.143-3.357-7.5-7.5-7.5s-7.5 3.357-7.5 7.5v22.431h-14.86v-22.431c0-4.143-3.357-7.5-7.5-7.5s-7.5 3.357-7.5 7.5v82.36h-3.022c-9.519 0-17.262 7.73-17.262 17.231 0 12.693 8.595 23.421 20.284 26.694v333.262h-36.897c-9.528 0-17.28 7.729-17.28 17.23 0 15.287 12.481 27.723 27.824 27.723h326.353c15.342 0 27.823-12.436 27.823-27.722 0-9.501-7.752-17.23-17.28-17.23zm-10.543 29.952h-326.353c-7.071 0-12.824-5.707-12.824-12.722 0-1.229 1.022-2.23 2.28-2.23h241.642c4.143 0 7.5-3.357 7.5-7.5s-3.357-7.5-7.5-7.5h-37.516v-129.732c0-4.143-3.357-7.5-7.5-7.5h-40c-4.143 0-7.5 3.357-7.5 7.5v129.731h-97.229v-332.128h27.376c4.143 0 7.5-3.357 7.5-7.5s-3.357-7.5-7.5-7.5h-34.876v-.106c-7.049 0-12.784-5.706-12.784-12.721 0-1.23 1.015-2.231 2.262-2.231h285.504c1.246 0 2.261 1.001 2.261 2.231 0 7.015-5.735 12.721-12.784 12.721v.106h-194.443c-4.143 0-7.5 3.357-7.5 7.5s3.357 7.5 7.5 7.5h186.941v332.129h-24.744c-4.143 0-7.5 3.357-7.5 7.5s3.357 7.5 7.5 7.5h70.829c1.258 0 2.28 1.001 2.28 2.23.001 7.015-5.752 12.722-12.822 12.722zm-147.771-137.184h-25v-15h25zm-25 15h25v92.231h-25z"/><path d="m196.693 150.043h-40c-4.143 0-7.5 3.357-7.5 7.5v60c0 4.143 3.357 7.5 7.5 7.5h40c4.143 0 7.5-3.357 7.5-7.5v-60c0-4.143-3.357-7.5-7.5-7.5zm-7.5 15v15h-25v-15zm-25 45v-15h25v15z"/><path d="m196.693 239.88h-40c-4.143 0-7.5 3.357-7.5 7.5v60c0 4.143 3.357 7.5 7.5 7.5h40c4.143 0 7.5-3.357 7.5-7.5v-60c0-4.143-3.357-7.5-7.5-7.5zm-7.5 15v15h-25v-15zm-25 45v-15h25v15z"/><path d="m196.693 329.816h-40c-4.143 0-7.5 3.357-7.5 7.5v91.781c0 4.143 3.357 7.5 7.5 7.5h40c4.143 0 7.5-3.357 7.5-7.5v-91.781c0-4.142-3.357-7.5-7.5-7.5zm-7.5 15v15h-25v-15zm-25 76.782v-46.781h25v46.781z"/><path d="m278.906 150.043h-40c-4.143 0-7.5 3.357-7.5 7.5v60c0 4.143 3.357 7.5 7.5 7.5h40c4.143 0 7.5-3.357 7.5-7.5v-60c0-4.143-3.357-7.5-7.5-7.5zm-7.5 15v15h-25v-15zm-25 45v-15h25v15z"/><path d="m278.906 239.88h-40c-4.143 0-7.5 3.357-7.5 7.5v60c0 4.143 3.357 7.5 7.5 7.5h40c4.143 0 7.5-3.357 7.5-7.5v-60c0-4.143-3.357-7.5-7.5-7.5zm-7.5 15v15h-25v-15zm-25 45v-15h25v15z"/><path d="m321.406 225.043h40c4.143 0 7.5-3.357 7.5-7.5v-60c0-4.143-3.357-7.5-7.5-7.5h-40c-4.143 0-7.5 3.357-7.5 7.5v60c0 4.143 3.358 7.5 7.5 7.5zm7.5-15v-15h25v15zm25-45v15h-25v-15z"/><path d="m321.406 314.88h40c4.143 0 7.5-3.357 7.5-7.5v-60c0-4.143-3.357-7.5-7.5-7.5h-40c-4.143 0-7.5 3.357-7.5 7.5v60c0 4.142 3.358 7.5 7.5 7.5zm7.5-15v-15h25v15zm25-45v15h-25v-15z"/><path d="m368.906 429.098v-91.781c0-4.143-3.357-7.5-7.5-7.5h-40c-4.143 0-7.5 3.357-7.5 7.5v91.781c0 4.143 3.357 7.5 7.5 7.5h40c4.143 0 7.5-3.358 7.5-7.5zm-15-84.282v15h-25v-15zm-25 76.782v-46.781h25v46.781z"/></g></svg>