<svg enable-background="new 0 0 24 24" height="512" viewBox="0 0 24 24" width="512" xmlns="http://www.w3.org/2000/svg"><path d="m11.95 19.93-1.986-1.696c-.858-.732-1.181-1.897-.821-2.968.363-1.072 1.324-1.804 2.45-1.869l2.424-.137.901-2.457c.396-1.078 1.434-1.803 2.582-1.803s2.186.725 2.582 1.803l.901 2.457.017.001v-11.511c0-.96-.79-1.75-1.75-1.75h-17.5c-.96 0-1.75.79-1.75 1.75v17.5c0 .96.79 1.75 1.75 1.75h9.929z" fill="#ffb74d"/><path d="m6 0v8.25c0 .3.18.57.45.69s.59.06.81-.14l3.24-3.02 3.24 3.02c.14.13.32.2.51.2.1 0 .2-.02.3-.06.27-.12.45-.39.45-.69v-8.25z" fill="#795548"/><path d="m6 0h-4.25c-.96 0-1.75.79-1.75 1.75v17.5c0 .96.79 1.75 1.75 1.75h8.75v-2.308l-.536-.458c-.858-.732-1.181-1.897-.821-2.968.237-.701.73-1.256 1.357-1.575v-7.911l-3.24 3.02c-.144.131-.33.202-.517.202-.099 0-.199-.02-.292-.062-.271-.12-.451-.39-.451-.69z" fill="#de9f43"/><path d="m10.5 0h-4.5v8.25c0 .3.18.57.45.69.093.042.193.062.292.062.187 0 .374-.071.517-.202l3.24-3.02v-5.78z" fill="#694a3f"/><path d="m21.054 24c-.147 0-.294-.043-.422-.13l-3.132-2.131-3.132 2.131c-.258.174-.597.173-.852-.006-.255-.178-.374-.497-.297-.798l.975-3.85-2.932-2.503c-.233-.199-.321-.52-.224-.81.098-.29.363-.492.668-.509l3.735-.211 1.354-3.69c.109-.297.391-.493.705-.493s.596.196.704.492l1.353 3.69 3.735.211c.306.018.57.219.668.509.098.291.009.611-.224.81l-2.932 2.503.975 3.85c.077.302-.041.62-.297.798-.128.092-.278.137-.428.137z" fill="#fdd835"/><path d="m17.5 11c-.314 0-.596.196-.704.492l-1.354 3.69-3.735.211c-.306.018-.57.219-.668.509-.098.291-.009.611.224.81l2.932 2.503-.975 3.85c-.077.302.042.62.297.798.128.092.278.137.429.137.147 0 .295-.043.423-.13l3.132-2.131v-10.739z" fill="#dcbc2e"/></svg>