<svg id="Capa_1" enable-background="new 0 0 510.008 510.008" height="512" viewBox="0 0 510.008 510.008" width="512" xmlns="http://www.w3.org/2000/svg"><g><path d="m351.024 253.591c-9.489 0-16.577-8.677-14.725-17.945l8-40c1.402-7.011 7.559-12.058 14.709-12.058h32c8.284 0 15 6.716 15 15s-6.716 15-15 15h-19.703l-5.588 27.942c-1.426 7.13-7.689 12.061-14.693 12.061z" fill="#fd5219"/><circle cx="351.008" cy="270.588" fill="#ffbfab" r="47"/><path d="m414.008 302.588c0 8.28-6.72 15-15 15h-129v49c0 8.28-6.72 15-15 15s-15-6.72-15-15v-224c0-8.28 6.72-15 15-15s15 6.72 15 15v145h129c8.28 0 15 6.72 15 15z" fill="#704c55"/><path d="m414.008 302.588c0 8.28-6.72 15-15 15h-129v49c0 8.28-6.72 15-15 15v-254c8.28 0 15 6.72 15 15v145h129c8.28 0 15 6.72 15 15z" fill="#5a344b"/><path d="m328.278 150.588h-144.54l67.85-149.28c3.59-1.627 3.254-.465 4.58-.73 1.34-.04 1.29-.62 4.26.74z" fill="#00c6cd"/><path d="m256.168.578-72 150.01h-136.16c-15.29 0-20.75-20.35-7.5-27.99 240.2-138.575 206.809-120.25 215.66-122.02z" fill="#a9f0f0"/><path d="m464.008 150.588h-136.13l-71.74-150.01c5.549 0-12.254-9.3 215.37 122.02 13.25 7.64 7.8 27.99-7.5 27.99z" fill="#00a0aa"/><path d="m328.278 150.588h-72.27v-150c1.49 0 1.321-.689 4.42.73z" fill="#64dde0"/><path d="m39.008 445.588c-8.284 0-15-6.716-15-15v-112c0-8.284 6.716-15 15-15s15 6.716 15 15v112c0 8.284-6.716 15-15 15z" fill="#704c55"/><path d="m510.008 389.438v18.3c0 20.87-16.98 37.85-37.85 37.85-21.965 0-297.877 0-321.54 0-3.98 0-7.79-1.58-10.6-4.4l-128.93-129.12c-14.756-14.757-14.816-38.695.01-53.52 12.959-12.959 21.06-24.03 39.7-24.03 10.12 0 19.62 3.94 26.77 11.09l103.49 103.69c1.48 1.47 3.45 2.29 5.55 2.29h285.55c20.87 0 37.85 16.98 37.85 37.85z" fill="#e4f1fb"/><path d="m510.008 389.438v18.3c0 20.87-16.98 37.85-37.85 37.85h-217.15v-94h217.15c20.87 0 37.85 16.98 37.85 37.85z" fill="#c9e3f7"/><path d="m510.008 430.588v64c0 8.28-6.72 15-15 15s-15-6.72-15-15v-49h-450v49c0 8.28-6.72 15-15 15s-15-6.72-15-15v-64c0-8.28 6.72-15 15-15h480c8.28 0 15 6.72 15 15z" fill="#704c55"/><path d="m510.008 430.588v64c0 8.28-6.72 15-15 15s-15-6.72-15-15v-49h-225v-30h240c8.28 0 15 6.72 15 15z" fill="#5a344b"/></g></svg>