<?xml version="1.0" encoding="iso-8859-1"?>
<!-- Generator: Adobe Illustrator 19.0.0, SVG Export Plug-In . SVG Version: 6.00 Build 0)  -->
<svg version="1.1" id="Capa_1" xmlns="http://www.w3.org/2000/svg" xmlns:xlink="http://www.w3.org/1999/xlink" x="0px" y="0px"
	 viewBox="0 0 384.086 384.086" style="enable-background:new 0 0 384.086 384.086;" xml:space="preserve">
<polygon style="fill:#00FFB0;" points="261.77,169.102 340.33,90.462 292.97,43.022 261.77,74.222 197.45,138.622 173.45,210.142 
	244.81,186.062 "/>
<g>
	<path style="fill:#000A64;" d="M293.658,20.454l-12,12L262.09,52.038c-0.112,0-0.208-0.032-0.32-0.032H16.01
		c-8.84,0-16,7.168-16,16v300.08c0,8.832,7.16,16,16,16h245.76c8.832,0,16-7.168,16-16V176.454l73.88-73.936
		c0.008-0.008,0.008-0.016,0.016-0.024l11.976-11.976l0,0c24.872-24.88,27.24-54.728,6-76.064
		C348.386-6.802,318.554-4.458,293.658,20.454z M316.282,43.078c12.184-12.176,22.528-14.208,30.704-6.024
		c10.248,10.304,2.408,22.456-5.976,30.848l-0.672,0.672l-16.904-16.936l-7.848-7.864L316.282,43.078z M32.01,352.086V84.006h198.12
		l-43.992,44.056c-1.744,1.744-3.064,3.872-3.848,6.216l-24,71.52c-1.936,5.76-0.44,12.12,3.864,16.416
		c0.96,0.96,2.056,1.728,3.192,2.4c0.312,0.184,0.632,0.344,0.952,0.504c0.96,0.48,1.952,0.864,2.984,1.144
		c0.256,0.072,0.496,0.168,0.752,0.224c1.128,0.248,2.272,0.4,3.432,0.4c0.112,0,0.224-0.056,0.336-0.056
		c1.6-0.032,3.208-0.256,4.784-0.784l67.2-22.68v148.72H32.01z M236.146,172.846l-37.272,12.576l12.552-37.408l81.536-81.608
		l18.24,18.272l6.512,6.528L236.146,172.846z"/>
	<path style="fill:#000A64;" d="M171.618,122.238c0-8.832-7.168-16-16-16h-34.536c-8.832,0-16,7.168-16,16s7.168,16,16,16h34.536
		C164.45,138.238,171.618,131.07,171.618,122.238z"/>
	<path style="fill:#000A64;" d="M113.002,299.862H84.538v-28.504c0-8.832-7.168-16-16-16s-16,7.168-16,16v44.504
		c0,8.832,7.168,16,16,16h44.464c8.832,0,16-7.168,16-16S121.834,299.862,113.002,299.862z"/>
</g>
<g>
</g>
<g>
</g>
<g>
</g>
<g>
</g>
<g>
</g>
<g>
</g>
<g>
</g>
<g>
</g>
<g>
</g>
<g>
</g>
<g>
</g>
<g>
</g>
<g>
</g>
<g>
</g>
<g>
</g>
</svg>
