<?xml version="1.0" encoding="iso-8859-1"?>
<!-- Generator: Adobe Illustrator 19.0.0, SVG Export Plug-In . SVG Version: 6.00 Build 0)  -->
<svg version="1.1" id="Capa_1" xmlns="http://www.w3.org/2000/svg" xmlns:xlink="http://www.w3.org/1999/xlink" x="0px" y="0px"
	 viewBox="0 0 512.001 512.001" style="enable-background:new 0 0 512.001 512.001;" xml:space="preserve">
<g>
	<path style="fill:#FFA92C;" d="M225.894,91.001h50c2.681,0,5,2.319,5,5v40h35v-40c0-22-18-40-40-40h-50c-22,0-40,18-40,40v40h35
		v-40C220.894,93.32,223.212,91.001,225.894,91.001z"/>
	<g>
		<polygon style="fill:#D37044;" points="280.894,136.001 220.894,136.001 185.894,136.001 119.501,136.001 119.501,326.875 
			124.501,326.875 124.501,366.875 119.501,366.875 119.501,456 392.501,456 392.501,366.875 387.501,366.875 387.501,326.875 
			392.501,326.875 392.501,136.001 315.894,136.001 		"/>
		<path style="fill:#D37044;" d="M79.501,326.875V136.001H30c-11.001,0-20,8.999-20,19.999v280.001C10,447,18.999,456,30,456h49.501
			v-89.125h-5v-40H79.501z"/>
	</g>
	<rect x="79.5" y="136" style="fill:#93603E;" width="40" height="190.87"/>
	<polygon style="fill:#FFA92C;" points="119.501,326.875 79.501,326.875 74.501,326.875 74.501,366.875 79.501,366.875 
		119.501,366.875 124.501,366.875 124.501,326.875 	"/>
	<g>
		<rect x="79.5" y="366.87" style="fill:#93603E;" width="40" height="89.13"/>
		<rect x="392.5" y="136" style="fill:#93603E;" width="40" height="190.87"/>
	</g>
	<polygon style="fill:#FFA92C;" points="432.501,326.875 392.501,326.875 387.501,326.875 387.501,366.875 392.501,366.875 
		432.501,366.875 437.501,366.875 437.501,326.875 	"/>
	<rect x="392.5" y="366.87" style="fill:#93603E;" width="40" height="89.13"/>
	<path style="fill:#D37044;" d="M432.501,366.875V456h49.501c11,0,19.999-9,19.999-19.999V156c0-11-8.999-19.999-19.999-19.999
		h-49.501v190.874h5v40H432.501z"/>
</g>
<path d="M482.002,466c16.542,0,29.999-13.457,29.999-29.999V156c0-16.542-13.457-29.999-29.999-29.999l0,0H325.894l0,0v-30
	c0-27.57-22.43-50-50-50h-50c-27.57,0-50,22.43-50,50v30l0,0H30l0,0c-16.542,0-30,13.458-30,29.999v280.001
	C0,452.543,13.458,466,30,466H482.002 M84.501,336.875h30v20h-30V336.875z M382.501,146.001v172.223c-2.986,1.729-5,4.952-5,8.651
	v40c0,3.699,2.014,6.921,5,8.651V446h-253v-70.474c2.986-1.73,5-4.952,5-8.651v-40c0-3.699-2.014-6.921-5-8.651V146.001H382.501
	 M270.894,126.001h-40v-25h40V126.001z M397.501,336.875h30v20h-30V336.875z M422.501,146.001v170.874h-20V146.001H422.501z
	 M195.894,96.001c0-16.542,13.458-30,30-30h50c16.542,0,30,13.458,30,30v30h-15v-30c0-8.271-6.729-15-15-15h-50
	c-8.271,0-15,6.729-15,15v30h-15L195.894,96.001L195.894,96.001z M109.501,146.001v170.874h-20V146.001H109.501z M20,436.001V156
	c0-5.514,4.486-9.999,10-9.999h39.501v172.223c-2.986,1.73-5,4.952-5,8.651v40c0,3.699,2.014,6.921,5,8.651V446H30
	C24.486,446,20,441.514,20,436.001z M89.501,446v-69.125h20V446H89.501z M402.501,446v-69.125h20V446H402.501z M492.001,436.001
	c0,5.514-4.485,9.999-9.999,9.999h-39.501v-70.475c2.986-1.729,5-4.952,5-8.651v-40c0-3.699-2.014-6.921-5-8.651V146.001h39.501
	c5.514,0,9.999,4.485,9.999,9.999V436.001z"/>
<path d="M225.502,412.755h-0.236c-5.523,0-10,4.477-10,10s4.477,10,10,10h0.236c5.523,0,10-4.477,10-10
	S231.025,412.755,225.502,412.755z"/>
<path d="M196.535,412.753h-41.034c-5.523,0-10,4.477-10,10s4.477,10,10,10h41.034c5.523,0,10-4.477,10-10
	C206.535,417.23,202.058,412.753,196.535,412.753z"/>
<g>
</g>
<g>
</g>
<g>
</g>
<g>
</g>
<g>
</g>
<g>
</g>
<g>
</g>
<g>
</g>
<g>
</g>
<g>
</g>
<g>
</g>
<g>
</g>
<g>
</g>
<g>
</g>
<g>
</g>
</svg>
